<?xml version="1.0" encoding="UTF-8"?>
<svg width="115px" height="115px" viewBox="0 0 115 115" version="1.1" xmlns="http://www.w3.org/2000/svg" xmlns:xlink="http://www.w3.org/1999/xlink">
    <!-- Generator: Sketch 59.1 (86144) - https://sketch.com -->
    <title>页面不存在</title>
    <desc>Created with Sketch.</desc>
    <defs>
        <linearGradient x1="50%" y1="0%" x2="50%" y2="100%" id="linearGradient-1">
            <stop stop-color="#DEDEDE" offset="0%"></stop>
            <stop stop-color="#B1C1E4" offset="100%"></stop>
        </linearGradient>
        <linearGradient x1="50%" y1="37.4973942%" x2="50%" y2="100%" id="linearGradient-2">
            <stop stop-color="#F0F0F0" offset="0%"></stop>
            <stop stop-color="#FDFDFD" stop-opacity="0.0713881341" offset="100%"></stop>
        </linearGradient>
        <linearGradient x1="50%" y1="2.23926855%" x2="50%" y2="88.7848932%" id="linearGradient-3">
            <stop stop-color="#DFDDDD" offset="0%"></stop>
            <stop stop-color="#BEBEBE" offset="100%"></stop>
        </linearGradient>
        <linearGradient x1="50%" y1="2.07053829%" x2="54.8212955%" y2="122.225864%" id="linearGradient-4">
            <stop stop-color="#E4E4E4" offset="0%"></stop>
            <stop stop-color="#A3A3A3" offset="100%"></stop>
        </linearGradient>
        <linearGradient x1="50%" y1="0%" x2="50%" y2="94.0949815%" id="linearGradient-5">
            <stop stop-color="#BABABA" stop-opacity="0" offset="0%"></stop>
            <stop stop-color="#6D6D6D" stop-opacity="0.453634511" offset="100%"></stop>
        </linearGradient>
        <filter x="-0.8%" y="-0.8%" width="101.7%" height="101.7%" filterUnits="objectBoundingBox" id="filter-6">
            <feGaussianBlur stdDeviation="0" in="SourceGraphic"></feGaussianBlur>
        </filter>
    </defs>
    <g id="页面不存在" stroke="none" stroke-width="1" fill="none" fill-rule="evenodd">
        <g id="二次申请为空-copy-7" transform="translate(2.000000, 1.000000)">
            <g id="编组">
                <g id="路径-14">
                    <polygon id="Rectangle" fill="url(#linearGradient-1)" opacity="0.589401972" transform="translate(53.357683, 55.930213) rotate(-11.000000) translate(-53.357683, -55.930213) " points="26.8760554 18.3439952 79.8393098 18.7109679 78.6668736 93.5164314 26.8760554 92.3889894"></polygon>
                    <ellipse id="椭圆形" fill="url(#linearGradient-2)" opacity="0.385067894" cx="55.5" cy="56.5" rx="55.5" ry="56.5"></ellipse>
                    <g id="Group-2" transform="translate(26.000000, 19.000000)">
                        <rect id="Rectangle" fill="url(#linearGradient-3)" x="0" y="0" width="54" height="74"></rect>
                        <path d="M35,78 C34.9996948,83.3590191 37.8586217,88.3108917 42.4998092,90.9903822 C47.1408823,93.6698726 52.8590033,93.6698726 57.5001908,90.9903822 C62.1412638,88.3108917 65,83.3590191 65,78 C65,72.6411335 62.1412638,67.6891083 57.5001908,65.0096178 C52.8590033,62.3301274 47.1408823,62.3301274 42.4998092,65.0096178 C37.8586217,67.6891083 34.9996948,72.6411335 35,78 Z" id="Fill-1-Copy-4" stroke="url(#linearGradient-5)" stroke-width="0.5" fill="url(#linearGradient-4)" filter="url(#filter-6)"></path>
                        <path d="M55.8290879,74.6440824 C55.8290879,74.8328521 55.8290879,74.998583 55.8290879,75.1412749 C55.8290879,75.5831578 55.8290879,76.2459822 55.8290879,77.129748 L55.8290879,82.6137187 C55.8290879,83.4434223 55.1490889,84.1160299 54.3102677,84.1160299 L50.6690185,84.1160299 L45.9567568,84.1160299 C45.1179356,84.1160299 44.4379366,83.4434223 44.4379366,82.6137187 L44.4379366,73.1528017 C44.4379366,72.3230981 45.1179356,71.6504905 45.9567568,71.6504905 C47.8130925,71.6504905 49.2053444,71.6504905 50.1335122,71.6504905 C50.6729066,71.6504905 51.3690325,71.6504905 52.22189,71.6504905 L55.8290879,74.6440824 Z" id="路径" stroke="#FFFFFF" stroke-width="1.2" stroke-linecap="round" stroke-linejoin="round"></path>
                        <polyline id="路径-2" stroke="#FFFFFF" stroke-width="1.2" stroke-linecap="round" stroke-linejoin="round" points="51.8290879 71.6095279 51.8290879 75.6095279 55.8290879 75.6095279"></polyline>
                        <line x1="47.7553711" y1="79.1938878" x2="52.2040272" y2="79.1938878" id="路径-6" stroke="#FFFFFF" stroke-width="1.2" stroke-linecap="round" stroke-linejoin="round"></line>
                        <polyline id="路径-6" stroke="#FFFFFF" stroke-width="1.2" stroke-linecap="round" stroke-linejoin="round" transform="translate(49.998589, 79.232560) rotate(90.000000) translate(-49.998589, -79.232560) " points="47.7984383 79.2325603 49.9985888 79.2325603 52.1987394 79.2325603"></polyline>
                        <rect id="Rectangle" fill-opacity="0.579851676" fill="#F3F6FA" opacity="0.811104911" x="5" y="12" width="42" height="13" rx="1"></rect>
                        <rect id="Rectangle" fill="#F3F6FA" opacity="0.538248698" x="16" y="35" width="9" height="7"></rect>
                        <rect id="Rectangle-Copy-4" fill-opacity="0.579851676" fill="#F3F6FA" opacity="0.399786086" x="4" y="36" width="9" height="23"></rect>
                        <rect id="Rectangle-Copy-9" fill-opacity="0.579851676" fill="#F3F6FA" opacity="0.459170387" x="15" y="48" width="30" height="11"></rect>
                        <rect id="Rectangle-Copy-8" fill-opacity="0.579851676" fill="#F3F6FA" opacity="0.488071987" x="28" y="32" width="19" height="11"></rect>
                    </g>
                </g>
            </g>
        </g>
    </g>
</svg>