<?xml version="1.0" encoding="UTF-8"?>
<svg width="373px" height="61px" viewBox="0 0 373 61" version="1.1" xmlns="http://www.w3.org/2000/svg" xmlns:xlink="http://www.w3.org/1999/xlink">
    <!-- Generator: Sketch 61 (89581) - https://sketch.com -->
    <title>logo_middle</title>
    <desc>Created with Sketch.</desc>
    <defs>
        <linearGradient x1="100%" y1="76.116807%" x2="36.3712673%" y2="76.116807%" id="linearGradient-1">
            <stop stop-color="#FFA716" offset="0%"></stop>
            <stop stop-color="#E95506" offset="100%"></stop>
        </linearGradient>
        <linearGradient x1="100%" y1="76.116807%" x2="36.3712673%" y2="76.116807%" id="linearGradient-2">
            <stop stop-color="#FFA716" offset="0%"></stop>
            <stop stop-color="#E95506" offset="100%"></stop>
        </linearGradient>
        <linearGradient x1="100%" y1="76.116807%" x2="36.3712673%" y2="76.116807%" id="linearGradient-3">
            <stop stop-color="#FFA716" offset="0%"></stop>
            <stop stop-color="#E95506" offset="100%"></stop>
        </linearGradient>
        <linearGradient x1="100%" y1="76.116807%" x2="36.3712673%" y2="76.116807%" id="linearGradient-4">
            <stop stop-color="#FFA716" offset="0%"></stop>
            <stop stop-color="#E95506" offset="100%"></stop>
        </linearGradient>
    </defs>
    <g id="logo_middle" stroke="none" stroke-width="1" fill="none" fill-rule="evenodd">
        <g id="编组-2" transform="translate(0.000000, 3.000000)">
            <g id="编组-4">
                <g id="logo_big" transform="translate(239.000000, 0.000000)">
                    <g id="编组">
                        <path d="M23.6606247,9.12561014 L41.2370189,8.96832076 C41.499414,8.96597262 41.751745,9.06917126 41.9372937,9.25471999 L48.2397835,15.5572098 L48.2397835,15.5572098 L48.2101635,19.2758833 L19.7683925,19.0310813 L19.7837957,13.0272647 C19.7892934,10.8843872 21.517826,9.14478583 23.6606247,9.12561014 Z" id="矩形" fill="url(#linearGradient-1)" transform="translate(34.004088, 14.120267) rotate(-315.000000) translate(-34.004088, -14.120267) "></path>
                        <path d="M27.1847809,29.088786 L48.628083,28.8968921 C48.890478,28.8945439 49.142809,28.9977426 49.3283578,29.1832913 L55.4683151,35.3232487 L55.4683151,35.3232487 L55.4906445,39.3924175 L31.0214529,39.0186454 C28.880638,38.985944 27.1638729,37.2382761 27.1693659,35.0972185 L27.1847809,29.088786 L27.1847809,29.088786 Z" id="矩形备份-3" fill="url(#linearGradient-2)" transform="translate(41.325051, 34.142819) scale(-1, 1) rotate(-315.000000) translate(-41.325051, -34.142819) "></path>
                        <path d="M3.89220733,16.4818731 L21.4771265,16.3245074 C21.734481,16.3222044 21.9823701,16.4214412 22.1670407,16.6006991 L28.4713953,22.720269 L28.4713953,22.720269 L28.3693242,26.5317938 L-2.48708493e-05,26.3873443 L0.0153783075,20.3835276 C0.0208759977,18.2406502 1.74940861,16.5010488 3.89220733,16.4818731 Z" id="矩形备份" fill="url(#linearGradient-3)" transform="translate(14.235685, 21.426353) rotate(-45.000000) translate(-14.235685, -21.426353) "></path>
                        <path d="M11.1924016,36.2890042 L28.7732225,36.1316752 C29.0330031,36.1293505 29.2830333,36.2304846 29.4681443,36.4127626 L35.7151082,42.5641192 L35.7151082,42.5641192 L35.6998433,46.4557323 L7.30016938,46.1944754 L7.31557256,40.1906587 C7.32107025,38.0477813 9.04960286,36.3081799 11.1924016,36.2890042 Z" id="矩形备份-2" fill="url(#linearGradient-4)" transform="translate(21.507639, 41.291888) rotate(-135.000000) translate(-21.507639, -41.291888) "></path>
                    </g>
                    <path d="M77.494906,43 L77.494906,12.2638829 L72.8457454,12.2638829 L72.8457454,43 L77.494906,43 Z M87.7402784,43 L87.7402784,35.2083513 L90.2800976,32.8407232 L98.2869852,43 L104.141484,43 L93.4225857,29.913474 L103.280528,20.7442962 L97.3829818,20.7442962 L87.7402784,29.913474 L87.7402784,11.6612139 L83.1772134,11.6612139 L83.1772134,43 L87.7402784,43 Z M109.952934,17.9892381 C110.81389,17.9892381 111.58875,17.6879036 112.191419,17.1282824 C112.794088,16.5256134 113.13847,15.7938011 113.13847,14.8897977 C113.13847,13.9857942 112.837136,13.2539819 112.234467,12.6943607 C111.631798,12.0916918 110.856938,11.8334051 109.952934,11.8334051 C109.048931,11.8334051 108.317119,12.0916918 107.71445,12.6943607 C107.111781,13.2539819 106.810446,13.9857942 106.810446,14.8897977 C106.810446,15.7507533 107.111781,16.5256134 107.71445,17.1282824 C108.317119,17.6879036 109.048931,17.9892381 109.952934,17.9892381 Z M112.234467,43 L112.234467,20.7442962 L107.671402,20.7442962 L107.671402,43 L112.234467,43 Z M129.668819,43 L129.668819,39.2117951 L126.74157,39.2117951 C126.181949,39.2117951 125.794519,39.039604 125.536232,38.7813173 C125.277945,38.4799828 125.148802,38.049505 125.148802,37.446836 L125.148802,24.5325011 L130.22844,24.5325011 L130.22844,20.7442962 L125.148802,20.7442962 L125.148802,13.5553164 L120.585737,15.4494189 L120.585737,20.7442962 L116.45315,20.7442962 L116.45315,24.5325011 L120.585737,24.5325011 L120.585737,37.446836 C120.585737,39.2117951 120.973167,40.5462764 121.834123,41.4933276 C122.695078,42.4834266 124.115655,43 126.009757,43 L129.668819,43 Z" id="Ikit" fill="#E95506" fill-rule="nonzero"></path>
                </g>
                <g id="编组" transform="translate(0.000000, 8.000000)" fill="#E95506">
                    <g id="Group-2" transform="translate(128.332188, 3.386038)">
                        <polygon id="Fill-453" points="8.24157307 7.50627069 4.54843224 8.31597931 3.97261529 4.69370158 7.66749509 4.69370158"></polygon>
                        <polygon id="Fill-454" points="16.2352992 7.50627069 12.5410715 8.31597931 11.9672109 4.69370158 15.6596996 4.69370158"></polygon>
                        <polygon id="Fill-455" points="19.9618066 7.50627069 23.6577732 8.31597931 24.2316338 4.69370158 20.5376235 4.69370158"></polygon>
                        <polygon id="Fill-456" points="22.706121 7.39110729 27.0705049 7.39110729 27.0705049 11.7678813 23.204119 11.7678813 23.204119 9.83979661 3.88436248 9.83979661 3.88436248 11.7678813 0.147529999 11.7678813 0.147529999 7.39110729 4.25911085 7.39110729 7.87247636 7.39110729 12.3596751 7.39110729 15.8506604 7.39110729 19.0901471 7.39110729"></polygon>
                        <path d="M0.64207177,4.06854131 L0.64207177,1.15815505 L16.722559,1.15815505 C20.1261611,1.24249517 23.3704299,0.85839983 26.4460185,-3.8612925e-16 L26.4460185,3.03907015 C23.4515094,3.80769558 20.4193952,4.1515772 17.3442414,4.06854131 L0.64207177,4.06854131 Z" id="Fill-457"></path>
                        <path d="M9.36855705,17.4314725 L24.9475684,17.4314725 L24.9475684,19.879075 C24.9475684,19.879075 19.4128567,30.2083486 3.97274571,30.5663594 L3.97274571,28.1213654 C3.97274571,28.1213654 14.5989487,27.8583459 19.8371658,20.2588229 L7.07333198,20.2588229 L9.36855705,17.4314725 Z" id="Fill-458"></path>
                        <path d="M10.8220112,21.2786862 C10.8220112,21.2786862 11.1989333,21.5853973 11.8108339,22.1794735 C13.8123902,24.1082103 18.7771539,27.0607666 27.1372596,27.8037422 L27.1372596,30.3302505 C27.1372596,30.3302505 13.6065394,30.7565159 6.10635512,21.2869463 L10.8220112,21.2786862 Z" id="Fill-459"></path>
                        <path d="M8.24794205,10.7376494 C8.24794205,10.7376494 6.41376181,19.1673139 0,23.6371229 L0,26.2118877 C0,26.2118877 9.92713645,21.4494967 12.3597403,10.7376494 L8.24794205,10.7376494 Z" id="Fill-460"></path>
                        <polygon id="Fill-461" points="0.0908612634 15.5020184 27.1377379 15.5020184 27.1377379 12.9261668 0.0908612634 12.9261668"></polygon>
                        <path d="M53.8804683,16.4449322 C55.1053564,16.533185 55.6735654,15.9115027 55.5887905,14.5827111 L55.5887905,14.1833997 L50.1142907,14.1833997 L50.1142907,16.4449322 L53.8804683,16.4449322 Z M50.1140733,11.6545004 L55.5887905,11.6545004 L55.5887905,9.5266513 L50.1140733,9.5266513 L50.1140733,11.6545004 Z M38.1162565,11.6551525 L46.3057256,11.6551525 L46.3057256,9.5266513 L38.8192358,9.5266513 L38.8192358,7.00340359 L46.3057256,7.00340359 L46.3057256,5.27399638 L50.1142907,5.27399638 L50.1142907,7.00340359 L58.5189576,7.00340359 L58.5189576,11.6551525 L60.751797,11.6551525 L60.751797,14.1833997 L58.5189576,14.1833997 L58.5189576,14.9805008 C58.6050367,17.7300322 57.2905915,19.0629539 54.5806218,18.9701363 L50.1142907,18.9701363 L50.1142907,19.5035658 L50.1142907,24.025544 L50.1142907,26.4183688 C50.1990656,29.1655091 48.8428851,30.4940834 46.0442278,30.4086564 L43.547282,30.4086564 L43.547282,27.8819307 L44.7291306,27.8819307 C45.8655485,27.9693141 46.3926742,27.4347977 46.3057256,26.2853375 L46.3057256,18.9701363 L38.5564337,18.9701363 L38.5564337,16.4449322 L46.3057256,16.4449322 L46.3057256,14.1833997 L38.1162565,14.1833997 L38.1162565,11.6551525 Z M37.2430754,14.1833997 L37.2430754,15.9115027 C37.2430754,19.99113 36.8037677,23.0052024 35.932543,24.957198 C35.1430499,26.9044114 34.1994405,28.8142369 31.7435779,30.6749364 L31.7435779,27.6154333 C33.4099474,25.3108613 34.1550967,21.6781497 33.9790258,16.7114296 L33.9790258,2.08124462 L46.0500968,2.08124462 L46.0500968,0.125119003 L49.8519234,0.125119003 L49.8519234,2.08124462 L60.2092379,2.08124462 L60.2092379,4.73926263 L37.2430754,4.73926263 L37.2430754,11.6551525 L37.2430754,14.1833997 Z" id="Fill-462"></path>
                        <path d="M38.6139284,20.1193356 L45.4176546,20.1193356 L45.4176546,22.4725989 C45.4176546,22.4725989 45.8089232,27.760594 37.0364639,29.5645596 L36.9690787,27.4206251 C36.9690787,27.4206251 42.4259714,25.8794615 42.2290329,22.5484615 L38.6139284,22.6041086 L38.6139284,20.1193356 Z" id="Fill-463"></path>
                        <path d="M58.0612385,20.1193356 L51.2592513,20.1193356 L51.2592513,22.4725989 C51.2592513,22.4725989 50.8666785,27.760594 59.638051,29.5645596 L59.7080446,27.4206251 C59.7080446,27.4206251 54.2507171,25.8794615 54.4489599,22.5484615 L58.0612385,22.6041086 L58.0612385,20.1193356 Z" id="Fill-464"></path>
                    </g>
                    <g id="Group-3">
                        <polygon id="Fill-465" points="39.5731451 33.5047648 28.8817307 16.8449826 28.788261 16.8449826 28.788261 33.5047648 22.2640745 33.5047648 22.2640745 4.633551e-14 28.788261 4.633551e-14 28.788261 15.1803521 28.8817307 15.1803521 39.3879447 4.633551e-14 46.7455333 4.633551e-14 35.5004738 16.0122326 46.979425 33.5047648"></polygon>
                        <path d="M62.0882836,21.473038 C57.4604456,21.7038865 53.3877742,22.1218918 53.3877742,25.8691581 C53.3877742,28.2306815 55.2386921,29.5720807 58.5251309,29.5720807 C59.8684864,29.5720807 61.4407341,29.3410148 62.0882836,29.0653878 L62.0882836,21.473038 Z M58.7092445,34.0618878 C51.2121034,34.0618878 47.464185,31.0982456 47.464185,26.0111017 C47.464185,19.2060713 54.5448424,17.8631505 62.0882836,17.4464494 L62.0882836,16.1520025 C62.0882836,13.5605001 60.284318,12.5868934 57.4143628,12.5868934 C55.0539263,12.5868934 52.1824496,13.3281301 50.4258709,14.0680624 L48.852319,9.81084273 C50.9347375,8.93157524 54.4978902,8.00665975 58.1088646,8.00665975 C64.4941507,8.00665975 68.0579556,10.5064313 68.0579556,16.8919349 L68.0579556,32.2559659 C66.2085593,33.2297899 62.4580324,34.0618878 58.7092445,34.0618878 L58.7092445,34.0618878 Z" id="Fill-466"></path>
                        <path d="M87.1262351,33.5047648 L87.1262351,17.0782222 C87.1262351,14.5784506 85.5985486,13.0490251 82.7296803,13.0490251 C81.2485112,13.0490251 79.8125555,13.3268258 78.9802402,13.652883 L78.9802402,33.5047648 L72.687989,33.5047648 L72.687989,9.81084273 C75.3247047,8.74594003 78.5176738,8.00535552 82.63708,8.00535552 C90.0427077,8.00535552 93.4650037,11.0600764 93.4650037,16.428499 L93.4650037,33.5047648 L87.1262351,33.5047648 Z" id="Fill-467"></path>
                        <path d="M112.285262,13.3748867 C111.638148,13.0957817 110.479558,12.8660201 109.183807,12.8660201 C105.713472,12.8660201 103.260435,15.1803739 103.260435,20.4094613 C103.260435,25.3159695 105.528054,27.7672673 108.998389,27.7672673 C110.156326,27.7672673 111.543808,27.444036 112.285262,27.0732003 L112.285262,13.3748867 Z M107.519394,43.9190524 C103.539105,43.9190524 100.299401,43.0858677 98.0298258,41.9764038 L99.8359651,37.0251171 C101.502335,37.9035151 104.096228,38.5508472 106.870322,38.5508472 C110.574332,38.5508472 112.285262,36.6549335 112.285262,33.1841637 L112.285262,31.655825 C111.082329,32.2103396 109.276842,32.5331362 107.658729,32.5331362 C101.318438,32.5331362 96.9673142,28.1391898 96.9673142,20.639875 C96.9673142,12.2167316 101.918601,8.00668149 109.739843,8.00668149 C113.257348,8.00668149 116.497052,8.79074028 118.532735,9.80999498 L118.532735,33.1841637 C118.532735,40.2174341 114.228998,43.9190524 107.519394,43.9190524 L107.519394,43.9190524 Z" id="Fill-468"></path>
                        <path d="M9.17611811,10.4513277 C9.45457093,10.4513277 9.71911198,10.5156696 9.96300274,10.6404408 C11.3946111,11.379069 10.7683639,12.8313276 10.2655838,13.9964386 C10.1875474,14.1792479 10.1060331,14.3668395 10.0279968,14.5581264 L9.99321737,14.633989 C9.96821965,14.6887666 7.74037973,19.3885546 6.43854216,22.5515265 C3.89746998,28.7331356 5.42146117,29.7373916 5.43841614,29.7463039 L5.54188495,29.7817354 L5.59231513,29.8406431 C5.60840061,29.8541201 5.99793024,30.1721345 6.8530695,30.1721345 C7.68668898,30.1721345 8.65355716,29.8739009 9.72802421,29.2854764 C14.1767482,26.1670657 17.1514764,20.366074 18.1031286,17.7304452 L18.3822335,16.9570376 L20.1129449,18.4095136 L19.9746967,18.7881747 C19.8057991,19.2440026 15.8126857,29.9651969 9.50826168,33.2503315 C9.06612816,33.589431 7.23020895,34.73237 5.17496195,34.73237 C5.02367143,34.73237 4.87172879,34.7256315 4.71891667,34.7128066 C3.69770562,34.625858 2.93451449,34.4334843 1.83309338,33.6674673 C1.47943004,33.4613992 -0.431699687,32.0443548 0.28606082,26.6563688 C0.321709736,26.4248682 0.661678674,24.3598395 2.20262484,20.0928381 C2.22001455,20.0471901 2.44303765,19.493545 2.94299197,18.3432153 C2.89169231,18.3597355 2.83734945,18.3738647 2.78387608,18.3890807 C2.28022644,18.5186341 1.58115988,18.6049305 1.0466435,18.6049305 C0.884701775,18.6049305 0.740801879,18.5962357 0.624073414,18.5805849 L0,18.4977664 L0.639724158,15.6960659 L0.908177891,15.5815111 C1.80766092,15.1971984 2.50498851,14.8009303 2.51237914,14.7968002 C3.67162105,14.2588059 4.76478204,13.3188918 5.72817228,12.4889676 C7.00001259,11.3949371 8.09730364,10.4513277 9.17611811,10.4513277 Z M12.4849245,0.592424132 C12.8311972,0.592424132 13.1592107,0.66741728 13.4600528,0.815447233 C14.1810739,1.16845846 14.6519004,1.88752319 14.7849317,2.8404796 C14.9070945,3.71083486 14.7288499,4.69009321 14.2841079,5.5967495 C13.5537399,7.08770023 12.2206008,8.09173893 10.9683239,8.09173893 C10.6227033,8.09173893 10.2951246,8.01522418 9.99536935,7.86871583 C9.27391353,7.51374826 8.80265224,6.79511827 8.66875143,5.84172712 C8.54615393,4.97093712 8.72570275,3.99211351 9.17044472,3.0863267 C9.90276911,1.59428911 11.2354734,0.592424132 12.4849245,0.592424132 Z" id="Combined-Shape"></path>
                    </g>
                </g>
                <line x1="214.350122" y1="13.5016502" x2="214.350122" y2="40.7652461" id="直线" stroke="#E1E0DF" stroke-width="1.4349261" stroke-linecap="square"></line>
            </g>
        </g>
    </g>
</svg>