<?xml version="1.0" encoding="UTF-8"?>
<svg width="115px" height="115px" viewBox="0 0 115 115" version="1.1" xmlns="http://www.w3.org/2000/svg" xmlns:xlink="http://www.w3.org/1999/xlink">
    <!-- Generator: Sketch 61 (89581) - https://sketch.com -->
    <title>系统消息为空</title>
    <desc>Created with Sketch.</desc>
    <defs>
        <linearGradient x1="50%" y1="-9.79947035%" x2="50%" y2="100%" id="linearGradient-1">
            <stop stop-color="#F4F4F5" stop-opacity="0.185369318" offset="0%"></stop>
            <stop stop-color="#FFFFFF" offset="100%"></stop>
        </linearGradient>
        <polygon id="path-2" points="0.000501392758 0.00534818942 5.99330641 0.00534818942 5.99330641 5.99999164 0.000501392758 5.99999164"></polygon>
        <linearGradient x1="50%" y1="0%" x2="50%" y2="80.6877367%" id="linearGradient-4">
            <stop stop-color="#9D9D9D" offset="0%"></stop>
            <stop stop-color="#8791AF" offset="100%"></stop>
        </linearGradient>
        <linearGradient x1="50%" y1="37.4973942%" x2="50%" y2="100%" id="linearGradient-5">
            <stop stop-color="#F0F0F0" offset="0%"></stop>
            <stop stop-color="#FDFDFD" stop-opacity="0.0713881341" offset="100%"></stop>
        </linearGradient>
        <linearGradient x1="38.2528436%" y1="-55.6382123%" x2="53.917805%" y2="139.154412%" id="linearGradient-6">
            <stop stop-color="#FFFFFF" offset="0%"></stop>
            <stop stop-color="#FFFCFC" offset="100%"></stop>
        </linearGradient>
        <linearGradient x1="24.1985175%" y1="-7.81276849%" x2="89.2507049%" y2="130.429822%" id="linearGradient-7">
            <stop stop-color="#E4E4E4" offset="0%"></stop>
            <stop stop-color="#D5DAEA" offset="100%"></stop>
        </linearGradient>
        <linearGradient x1="50%" y1="0%" x2="50%" y2="99.3850296%" id="linearGradient-8">
            <stop stop-color="#FFFFFF" offset="0%"></stop>
            <stop stop-color="#FFFFFF" stop-opacity="0.200775787" offset="100%"></stop>
        </linearGradient>
        <linearGradient x1="100%" y1="100%" x2="-88.2714844%" y2="100%" id="linearGradient-9">
            <stop stop-color="#F1F1F1" offset="0%"></stop>
            <stop stop-color="#DEDEDE" offset="100%"></stop>
        </linearGradient>
        <linearGradient x1="100%" y1="100%" x2="-88.2714844%" y2="100%" id="linearGradient-10">
            <stop stop-color="#F1F1F1" offset="0%"></stop>
            <stop stop-color="#CDCDCD" offset="100%"></stop>
        </linearGradient>
        <linearGradient x1="100%" y1="100%" x2="-88.2714844%" y2="100%" id="linearGradient-11">
            <stop stop-color="#F1F1F1" offset="0%"></stop>
            <stop stop-color="#DEDEDE" offset="100%"></stop>
        </linearGradient>
        <linearGradient x1="50%" y1="0%" x2="50%" y2="100%" id="linearGradient-12">
            <stop stop-color="#E9E9E9" offset="0%"></stop>
            <stop stop-color="#CECECE" offset="100%"></stop>
        </linearGradient>
        <linearGradient x1="137.200186%" y1="39.2031909%" x2="0%" y2="88.6014989%" id="linearGradient-13">
            <stop stop-color="#A7A7A7" offset="0%"></stop>
            <stop stop-color="#DEDEDE" offset="100%"></stop>
        </linearGradient>
        <linearGradient x1="50%" y1="2.07053829%" x2="54.5792612%" y2="122.225864%" id="linearGradient-14">
            <stop stop-color="#E4E4E4" offset="0%"></stop>
            <stop stop-color="#A3A3A3" offset="100%"></stop>
        </linearGradient>
        <linearGradient x1="50%" y1="0%" x2="50%" y2="94.0949815%" id="linearGradient-15">
            <stop stop-color="#BABABA" stop-opacity="0" offset="0%"></stop>
            <stop stop-color="#6D6D6D" stop-opacity="0.453634511" offset="100%"></stop>
        </linearGradient>
        <filter x="-0.9%" y="-0.8%" width="101.7%" height="101.7%" filterUnits="objectBoundingBox" id="filter-16">
            <feGaussianBlur stdDeviation="0" in="SourceGraphic"></feGaussianBlur>
        </filter>
    </defs>
    <g id="系统消息为空" stroke="none" stroke-width="1" fill="none" fill-rule="evenodd">
        <g transform="translate(0.000000, -19.000000)">
            <g id="编组" transform="translate(8.000000, 0.000000)" fill="url(#linearGradient-1)" opacity="0.415248326">
                <g id="路径-14">
                    <path d="M25.473676,101.349934 L0,6.09288402 C47.1907488,-2.62391286 79.5240821,-1.98768239 97,8.00157542 L64.9486743,102 L25.473676,101.349934 Z" id="路径-85"></path>
                </g>
            </g>
            <g id="jiyin-4备份-2" opacity="0.781319754" transform="translate(38.000000, 77.000000) rotate(-12.000000) translate(-38.000000, -77.000000) translate(35.000000, 74.000000)">
                <g id="编组">
                    <mask id="mask-3" fill="white">
                        <use xlink:href="#path-2"></use>
                    </mask>
                    <g id="Clip-2"></g>
                    <path d="M5.99330641,1.64124234 C5.47386351,2.1700195 4.82607242,2.06304735 4.20034262,1.96012813 C3.54718663,1.85247075 2.87331476,1.74152089 2.31241504,2.30238719 C1.74951811,2.86527577 1.8578273,3.51177159 1.97279666,4.19700836 C2.07777994,4.82472702 2.18674095,5.47385515 1.66729805,5.99999164 L1.52490251,5.8589415 C1.97279666,5.40566574 1.88123398,4.86151253 1.77559889,4.23043454 C1.66262674,3.55789136 1.53493036,2.79643454 2.17071309,2.16068524 C2.8037883,1.5275766 3.56256267,1.65191365 4.23108635,1.7622117 C4.86152089,1.86650975 5.40368524,1.9554234 5.85091922,1.50084401 L5.99330641,1.64124234 Z" id="Fill-1" fill="#CACED2" mask="url(#mask-3)"></path>
                    <path d="M4.35744568,0.00534818942 L4.49781058,0.148420613 C4.0432312,0.595662953 4.13280501,1.13851253 4.2364429,1.7662312 C4.34739276,2.43609192 4.47176323,3.19487465 3.8386546,3.8286351 C3.20290529,4.46441783 2.44144847,4.33671309 1.76959889,4.22439276 C1.13847911,4.11875766 0.594325905,4.02719499 0.141050139,4.47508914 L0,4.33270195 C0.52613649,3.81325905 1.17527298,3.92156825 1.80233983,4.02650975 C2.4875766,4.14151253 3.13471588,4.24982173 3.69760446,3.68689972 C4.25851253,3.12602507 4.14752089,2.4521532 4.03989694,1.80034262 C3.93560724,1.17259053 3.8286351,0.524791086 4.35744568,0.00534818942 Z" id="Fill-3" fill="#CACED2" mask="url(#mask-3)"></path>
                </g>
                <path d="M3.14382792,4.20240519 L1.7983176,2.85681341 L1.93961463,2.71549601 L3.28509996,4.06112942 L3.14382792,4.20240519 Z M1.91799382,5.12152198 L0.87859653,4.08203603 L1.00435022,3.95630493 L2.0437142,4.99578255 L1.91799382,5.12152198 Z M1.75500106,5.68421053 L0.315789474,4.2448845 L0.457094822,4.1036004 L1.89629808,5.54292643 L1.75500106,5.68421053 Z M4.97116507,2.03523585 L3.96474431,1.02873756 L4.10604965,0.887453459 L5.11243712,1.89392677 L4.97116507,2.03523585 Z M5.5429135,1.89642457 L4.10371024,0.45709855 L4.24497397,0.315789474 L5.68421053,1.7551488 L5.5429135,1.89642457 Z M3.6358033,3.79768607 L2.20271082,2.36447134 L2.34398286,2.22319557 L3.77706703,3.65640197 L3.6358033,3.79768607 Z M4.01596989,3.33009724 L2.67048455,1.98450545 L2.8117566,1.84322136 L4.15726691,3.18881314 L4.01596989,3.33009724 Z" id="Fill-4" fill="#CACED2"></path>
            </g>
            <g id="编组-20" transform="translate(0.000000, 19.000000)">
                <polygon id="路径-115" fill="url(#linearGradient-4)" points="22.4152542 54 56.2401086 36 84.7881356 54 81.8644068 89.4545455 23.3898305 89.4545455"></polygon>
                <ellipse id="椭圆形" fill="url(#linearGradient-5)" opacity="0.385067894" cx="57.029961" cy="57.5" rx="57.029961" ry="57.5"></ellipse>
                <g id="编组-4" transform="translate(28.262712, 17.000000)">
                    <polygon id="路径-3" fill="url(#linearGradient-6)" points="0 35.9842496 0 0 37.96183 0 50.6779661 11.233391 50.6573876 68 0 68"></polygon>
                    <path d="M37.9115699,0 L36.059322,13 L50.6779661,11.0384991 C50.5138736,10.7567916 46.2584082,7.07729193 37.9115699,0 Z" id="路径-18" fill="#DADCE1" opacity="0.359723772"></path>
                    <polygon id="路径-11" fill="url(#linearGradient-7)" opacity="0.786830357" points="38.0084746 0 38.0084746 12 50.7514876 11.0759277"></polygon>
                    <line x1="0.243644068" y1="0" x2="0.243644068" y2="38" id="路径-15" stroke="url(#linearGradient-8)" stroke-width="0.5" opacity="0.799572173"></line>
                    <line x1="38.2521186" y1="0" x2="38.2521186" y2="12" id="路径-19" stroke="#EEF1F5" stroke-width="0.5"></line>
                    <path d="M43.8559322,22.4545455 L43.8559322,25.4545455 L24.3644068,25.4545455 L24.3644068,22.4545455 L43.8559322,22.4545455 Z M37.0338983,16.4545455 L37.0338983,19.4545455 L24.3644068,19.4545455 L24.3644068,16.4545455 L37.0338983,16.4545455 Z" id="形状结合备份-4" fill="url(#linearGradient-9)" opacity="0.7890625"></path>
                    <path d="M43.8559322,40.4545455 L43.8559322,43.4545455 L24.3644068,43.4545455 L24.3644068,40.4545455 L43.8559322,40.4545455 Z M37.0338983,34.4545455 L37.0338983,37.4545455 L24.3644068,37.4545455 L24.3644068,34.4545455 L37.0338983,34.4545455 Z" id="形状结合备份-3" fill="url(#linearGradient-9)" opacity="0.803245908"></path>
                </g>
                <rect id="矩形备份-28" fill="url(#linearGradient-10)" opacity="0.738723028" x="34.1101695" y="32" width="15.5932203" height="11"></rect>
                <rect id="矩形备份-27" fill="url(#linearGradient-11)" opacity="0.803245908" x="34.1101695" y="51" width="15.5932203" height="11"></rect>
                <path d="M28.2627119,65 L37.8279255,65 C37.3764753,68.6227423 37.7601564,75.7880859 38.6391665,76.5 C39.9112066,78.2200521 41.677253,79.2495117 43.9373055,79.5883789 C47.5107518,80.1570638 49.6021887,80.7942708 50.2116161,81.5 C47.565318,85.8333333 46.0918741,88 45.7912846,88 C45.4906951,88 40.5948928,86.9453939 31.1038777,84.8361816 L28.6756679,76.5 L28.2627119,65 Z" id="路径-2" fill="#C4CCE0" opacity="0.163690476"></path>
                <polygon id="路径-22" fill="url(#linearGradient-12)" points="59.4491525 74.2365715 22.4152542 54 22.4152542 92"></polygon>
                <polygon id="路径-21" fill="url(#linearGradient-13)" points="22.4152542 88.2413256 84.7881356 54 84.7881356 92 22.4152542 92"></polygon>
                <path d="M62.3983051,98 C62.3980076,103.359019 65.18425,108.310892 69.7074412,110.990382 C74.2305209,113.669873 79.8032659,113.669873 84.3264571,110.990382 C88.8495368,108.310892 91.6355932,103.359019 91.6355932,98 C91.6355932,92.6411335 88.8495368,87.6891083 84.3264571,85.0096178 C79.8032659,82.3301274 74.2305209,82.3301274 69.7074412,85.0096178 C65.18425,87.6891083 62.3980076,92.6411335 62.3983051,98 Z" id="Fill-1-Copy-3" stroke="url(#linearGradient-15)" stroke-width="0.5" fill="url(#linearGradient-14)" filter="url(#filter-16)"></path>
                <path d="M78.2763823,96.7139456 L78.2763823,99.3293759 L82.4164816,99.379329 C82.4188945,99.3793533 82.4188945,99.3793533 82.4213075,99.3793582 C82.6422214,99.3793582 82.8213075,99.2002721 82.8213075,98.9793582 L82.8213075,97.1139456 C82.8213075,96.8930317 82.6422214,96.7139456 82.4213075,96.7139456 L78.2763823,96.7139456 Z M75.6299241,99.3914966 L75.6299241,96.7139456 L71.1949153,96.7139456 C70.9740014,96.7139456 70.7949153,96.8930317 70.7949153,97.1139456 L70.7949153,98.9914966 C70.7949153,99.2124105 70.9740014,99.3914966 71.1949153,99.3914966 L75.6299241,99.3914966 Z" id="形状" stroke="#FFFFFF" stroke-width="1.2"></path>
                <path d="M79.3125589,96.5608844 L79.3243884,99.2384354 L82.5704773,99.2384354 C82.7913912,99.2384354 82.9704773,99.0593493 82.9704773,98.8384354 L82.9704773,96.9608844 C82.9704773,96.7399705 82.7913912,96.5608844 82.5704773,96.5608844 L79.3125589,96.5608844 Z M74.6169664,99.2384354 L74.6169664,96.5608844 L71.3440851,96.5608844 C71.1231712,96.5608844 70.9440851,96.7399705 70.9440851,96.9608844 L70.9440851,98.8384354 C70.9440851,99.0593493 71.1231712,99.2384354 71.3440851,99.2384354 L74.6169664,99.2384354 Z" id="形状" stroke="#FFFFFF" stroke-width="1.2" transform="translate(76.957281, 97.899660) rotate(90.000000) translate(-76.957281, -97.899660) "></path>
            </g>
        </g>
    </g>
</svg>